<svg xmlns="http://www.w3.org/2000/svg" viewBox="270 711 357 361"><polygon points="361,715 448,759 361,803" fill="#a03369"/><polygon points="361,803 448,759 448,847" fill="#b6457e"/><polygon points="448,759 536,803 448,847" fill="#a03369"/><polygon points="448,847 536,803 536,891" fill="#b6457e"/><polygon points="536,803 623,847 536,891" fill="#a03369"/><polygon points="536,891 623,847 623,936" fill="#b6457e"/><polygon points="536,891 623,936 536,980" fill="#a03369"/><polygon points="448,936 536,891 536,980" fill="#b6457e"/><polygon points="274,847 361,803 361,891" fill="#fbb116"/><polygon points="361,803 448,847 361,891" fill="#f8a51c"/><polygon points="274,847 361,891 274,936" fill="#f8a51c"/><polygon points="274,936 361,891 361,980" fill="#fbb116"/><polygon points="361,891 448,936 361,980" fill="#f8a51c"/><polygon points="361,980 448,936 448,1024" fill="#fbb116"/><polygon points="448,936 536,980 448,1024" fill="#f8a51c"/><polygon points="448,1024 536,980 536,1068" fill="#fbb116"/></svg>
